<svg data-name="Layer 1" xmlns="http://www.w3.org/2000/svg" width="618.726" height="633.214"><path fill="#a0616a" d="M111.33 615.176h9.479l4.511-36.562h-13.99v36.562z"/><path d="M108.236 608.683l15.144-.904v6.489l14.398 9.943a4.053 4.053 0 01-2.303 7.388h-18.03l-3.107-6.418-1.213 6.418h-6.798z" fill="#2f2e41"/><path fill="#a0616a" d="M187.143 615.176h9.479l4.512-36.562h-13.991v36.562z"/><path d="M184.05 608.683l15.144-.904v6.489l14.397 9.943a4.053 4.053 0 01-2.302 7.388h-18.03l-3.108-6.418-1.213 6.418h-6.798z" fill="#2f2e41"/><path fill="#a0616a" d="M118.834 391.865l50.397 1.263V338.66l-41.397.205-9 53z"/><path d="M169.487 352.65l6.737 22.445 13.985 29.442 29.542 170.059-4.516 23.523-43.795-1.84-19.506-145.808-.313 20.13-.152 9.742s7.114 63.37-1.179 75.668-.169 10.851-.169 10.851l-.395 25.369-51.892.368 11.448-73.037s5.813-4.59 2.703-9.204S115 500.094 115 500.094l-2.747-57.018s3.041-9.849-.536-11.129-.47-9.75-.47-9.75l-.532-11.035 11.772-44.513z" fill="#2f2e41"/><path d="M120.652 338.66l-5.152-15.457-3.68-5.152-1.473-14.721c0-39.747 8.866-33.128 8.866-33.128l11.564-13.98 13.157-.41 10.397-.326 8.644 14.353 12.513 4.417 4.9 25.46-8.948 27.167.394-2.018c4.213 7.776 3.141 8.946-.347 14.784l-.173 2.108c-.41 4.985 3.064 5.844-1.827 6.892-42 9-46 27-51 20-1.113-1.559 3.611-20.16 2-20-4.415.442.165-9.989.165-9.989z" fill="#e6e6e6"/><circle cx="146.391" cy="228.71" r="21.835" fill="#a0616a"/><path d="M100.333 384.497l2.236-76.92 14.563 6.372-7.26 70.268a7.257 7.257 0 11-9.54.28z" fill="#a0616a"/><path d="M118.952 269.804l-1.693.535a22.322 22.322 0 00-15.6 21.286l-3.186 14.587c4.615 7.918 11.437 11.842 20.934 10.923z" fill="#e6e6e6"/><path d="M218.502 296.354a7.25 7.25 0 10-13.899 2.89l-14.28 22.502V308.25l-16.108 1.741 2.255 24.053a9.08 9.08 0 0016.947 3.615l19.303-34.203a7.253 7.253 0 005.782-7.102z" fill="#a0616a"/><path d="M172.909 273.42l1.62.512a21.354 21.354 0 0114.924 20.363l3.047 13.955c-4.415 7.574-10.94 11.327-20.026 10.448z" fill="#e6e6e6"/><path d="M118.364 233.587c1.22-4.642 1.678-9.5 3.44-13.964a25.345 25.345 0 0145.514-3.387 17.264 17.264 0 012.498 11.226c-.695 4.261-3.518 8.313-2.634 12.54.591 2.827 2.727 5.023 4.423 7.362s3.034 5.431 1.812 8.048c-1.327 2.843-5.012 3.683-8.138 3.416-3.126-.266-6.256-1.276-9.342-.71l1.47-5.757-10.973 10.56c.405-3.663-1.297-7.179-2.471-10.673s-1.722-7.705.604-10.564c1.392-1.71 3.535-2.575 5.448-3.67s3.812-2.735 4.007-4.93c.24-2.716-2.192-4.895-4.581-6.207-2.39-1.313-5.14-2.414-6.481-4.787l2.887 6.198a18.243 18.243 0 01-15.132-10.247l-1.319.864c-10.964 12.296 3.077 30.72-5.155 37.166 3.615-6.446-7.754-15.336-5.877-22.484z" fill="#2f2e41"/><rect x="513.818" y="153" width="326" height="594" rx="58.728" transform="rotate(-16.135 60.96 1408.517)" fill="#3f3d56"/><path d="M405.336 7.612l-26.197 7.579 2.618 9.05a16.079 16.079 0 01-10.977 19.914l-117.043 33.86a16.079 16.079 0 01-19.914-10.976l-2.618-9.05-26.197 7.578a53.289 53.289 0 00-36.34 65.925l132.435 457.77a53.289 53.289 0 0065.924 36.34l200.328-57.955a53.289 53.289 0 0036.34-65.925L471.26 43.952a53.29 53.29 0 00-65.924-36.34z" fill="#fff"/><path d="M179.111 192.775a4.005 4.005 0 01-4.954-2.73l-2.223-7.686a4 4 0 117.685-2.223l2.223 7.685a4.005 4.005 0 01-2.73 4.954zM190.511 232.18a4.005 4.005 0 01-4.954-2.73l-6.12-21.154a4 4 0 117.685-2.223l6.12 21.154a4.005 4.005 0 01-2.73 4.954zM199.676 263.86a4.005 4.005 0 01-4.954-2.73l-6.12-21.155a4 4 0 017.685-2.223l6.12 21.154a4.005 4.005 0 01-2.73 4.954zM509.753 155.416a4.005 4.005 0 01-4.954-2.73l-14.932-51.617a4 4 0 017.684-2.224l14.933 51.617a4.005 4.005 0 01-2.73 4.954z" fill="#3f3d56"/><path d="M254.992 183.53a1.496 1.496 0 01-1.068-.09l-19.404-9.347a1.5 1.5 0 01-.7-2.003l9.347-19.404a1.5 1.5 0 112.703 1.302l-8.697 18.053 18.053 8.697a1.5 1.5 0 01-.234 2.792zM266.02 180.298a1.5 1.5 0 01-1.66-2.28l11.224-16.601-16.6-11.224a1.5 1.5 0 111.68-2.485l17.843 12.064a1.5 1.5 0 01.402 2.083l-12.063 17.843a1.492 1.492 0 01-.825.6z" fill="#6c63ff"/><path d="M462.533 144.613l-228.897 66.22a13.874 13.874 0 01-17.164-9.46l-12.862-44.46a13.874 13.874 0 019.461-17.164l228.897-66.22a13.874 13.874 0 0117.164 9.46l12.862 44.46a13.874 13.874 0 01-9.461 17.164zm-248.906-2.943a11.872 11.872 0 00-8.096 14.687l12.862 44.46a11.872 11.872 0 0014.687 8.095l228.897-66.22a11.872 11.872 0 008.096-14.687l-12.863-44.46a11.872 11.872 0 00-14.686-8.095z" fill="#3f3d56"/><path d="M343.409 133.272l-38.424 11.116a4 4 0 01-2.224-7.685l38.425-11.116a4 4 0 012.223 7.685zM432.135 130.505L310.138 165.8a4 4 0 01-2.223-7.685l121.997-35.294a4 4 0 112.223 7.685z" fill="#e6e6e6"/><path d="M341.753 487.516a1.494 1.494 0 01-1.068-.09l-19.404-9.348a1.5 1.5 0 01-.7-2.002l9.348-19.404a1.5 1.5 0 012.702 1.302l-8.696 18.053 18.052 8.697a1.5 1.5 0 01-.234 2.792zM352.782 484.284a1.5 1.5 0 01-1.66-2.28l11.223-16.601-16.6-11.225a1.5 1.5 0 011.68-2.485l17.843 12.065a1.5 1.5 0 01.403 2.082l-12.064 17.844a1.496 1.496 0 01-.825.6z" fill="#6c63ff"/><path d="M567.581 507.723l-228.897 66.22a13.874 13.874 0 01-17.164-9.46l-33.149-114.585a13.874 13.874 0 019.461-17.164l228.897-66.22a13.874 13.874 0 0117.164 9.461l33.15 114.585a13.874 13.874 0 01-9.462 17.163zm-269.193-73.068a11.872 11.872 0 00-8.096 14.687l33.15 114.585a11.872 11.872 0 0014.686 8.095l228.897-66.22a11.872 11.872 0 008.096-14.687l-33.15-114.584a11.872 11.872 0 00-14.686-8.096z" fill="#3f3d56"/><path d="M430.17 437.257l-38.424 11.117a4 4 0 11-2.223-7.685l38.424-11.116a4 4 0 012.223 7.684zM518.896 434.49L396.9 469.786a4 4 0 11-2.223-7.685l121.997-35.294a4 4 0 012.223 7.685z" fill="#e6e6e6"/><rect x="529.557" y="402.966" width="17.432" height="9.123" rx="2.88" transform="rotate(-16.135 -77.585 1366.044)" fill="#e6e6e6"/><rect x="620.843" y="376.557" width="17.432" height="9.123" rx="2.88" transform="rotate(-16.135 13.7 1339.635)" fill="#6c63ff"/><rect x="646.707" y="369.074" width="17.432" height="9.123" rx="2.88" transform="rotate(-16.135 39.564 1332.152)" fill="#e6e6e6"/><rect x="553.323" y="389.031" width="60.764" height="9.123" rx="2.88" transform="rotate(-16.135 -32.154 1352.109)" fill="#e6e6e6"/><rect x="675.037" y="353.819" width="60.764" height="9.123" rx="2.88" transform="rotate(-16.135 89.56 1316.897)" fill="#f2f2f2"/><rect x="535.607" y="422.65" width="17.432" height="9.123" rx="2.88" transform="rotate(-16.135 -71.536 1385.728)" fill="#e6e6e6"/><rect x="626.893" y="396.241" width="17.432" height="9.123" rx="2.88" transform="rotate(-16.135 19.75 1359.319)" fill="#6c63ff"/><rect x="652.757" y="388.758" width="17.432" height="9.123" rx="2.88" transform="rotate(-16.135 45.614 1351.836)" fill="#e6e6e6"/><rect x="559.372" y="408.715" width="60.764" height="9.123" rx="2.88" transform="rotate(-16.135 -26.104 1371.793)" fill="#e6e6e6"/><rect x="681.086" y="373.502" width="60.764" height="9.123" rx="2.88" transform="rotate(-16.135 95.606 1336.559)" fill="#f2f2f2"/><rect x="589.687" y="428.438" width="17.432" height="9.123" rx="2.88" transform="rotate(-16.135 -17.456 1391.516)" fill="#e6e6e6"/><rect x="680.973" y="402.029" width="17.432" height="9.123" rx="2.88" transform="rotate(-16.135 73.83 1365.107)" fill="#6c63ff"/><rect x="706.837" y="394.547" width="17.432" height="9.123" rx="2.88" transform="rotate(-16.135 99.694 1357.625)" fill="#e6e6e6"/><rect x="613.452" y="414.503" width="60.764" height="9.123" rx="2.88" transform="rotate(-16.135 27.976 1377.581)" fill="#e6e6e6"/><rect x="735.167" y="379.291" width="60.764" height="9.123" rx="2.88" transform="rotate(-16.135 149.685 1342.347)" fill="#f2f2f2"/><rect x="557.8" y="500.484" width="17.432" height="9.123" rx="2.88" transform="rotate(-16.135 -49.343 1463.562)" fill="#6c63ff"/><rect x="583.664" y="493.002" width="17.432" height="9.123" rx="2.88" transform="rotate(-16.135 -23.479 1456.08)" fill="#e6e6e6"/><rect x="612.416" y="479.207" width="60.764" height="9.123" rx="2.88" transform="rotate(-16.135 26.94 1442.285)" fill="#f2f2f2"/><rect x="618.687" y="461.435" width="17.432" height="9.123" rx="2.88" transform="rotate(-16.135 11.545 1424.513)" fill="#6c63ff"/><rect x="644.552" y="453.953" width="17.432" height="9.123" rx="2.88" transform="rotate(-16.135 37.406 1417.008)" fill="#6c63ff"/><rect x="551.59" y="475.37" width="60.764" height="9.123" rx="2.88" transform="rotate(-16.135 -33.887 1438.449)" fill="#e6e6e6"/><rect x="673.304" y="440.158" width="60.764" height="9.123" rx="2.88" transform="rotate(-16.135 87.823 1403.214)" fill="#f2f2f2"/><rect x="595.014" y="446.85" width="17.432" height="9.123" rx="2.88" transform="rotate(-16.135 -12.13 1409.928)" fill="#e6e6e6"/><rect x="686.299" y="420.441" width="17.432" height="9.123" rx="2.88" transform="rotate(-16.135 79.156 1383.52)" fill="#6c63ff"/><rect x="712.164" y="412.959" width="17.432" height="9.123" rx="2.88" transform="rotate(-16.135 105.02 1376.037)" fill="#e6e6e6"/><rect x="619.202" y="434.376" width="60.764" height="9.123" rx="2.88" transform="rotate(-16.135 33.725 1397.454)" fill="#e6e6e6"/><rect x="740.916" y="399.164" width="60.764" height="9.123" rx="2.88" transform="rotate(-16.135 155.44 1362.242)" fill="#f2f2f2"/><circle cx="289.985" cy="324.137" r="4.5" fill="#6c63ff"/><circle cx="284.705" cy="305.886" r="4.5" fill="#6c63ff"/><path d="M316.996 46.541l-29.779 8.616a2.5 2.5 0 01-1.39-4.803l29.78-8.616a2.5 2.5 0 111.39 4.803z" fill="#fff"/><circle cx="331.671" cy="39.693" r="2" fill="#fff"/><path d="M34.375 631.859a10.947 10.947 0 01-.564-2.331.756.756 0 01-.013-.176c-.51-4.842 1.99-9.331 4.822-13.887l3.883-6.238a3.44 3.44 0 016.28 1.086c.212.969.423 1.951.624 2.93 2.09-1.739 4.273-3.348 6.185-4.739q7.57-5.493 15.136-10.999a3.437 3.437 0 015.41 3.363l-.96 5.566c-1.275 7.385-2.72 15.755-6.138 23.073a36.166 36.166 0 01-1.217 2.423l-.143.259H34.494z" fill="#f0f0f0"/><path d="M1.184 632.907l616.358.307a1.19 1.19 0 000-2.381l-616.358-.308a1.19 1.19 0 000 2.382z" fill="#cacaca"/><path d="M426.381 520.448a17.079 17.079 0 1111.66-21.152 17.079 17.079 0 01-11.66 21.152z" fill="#e6e6e6"/><path d="M427.64 500.551l-4.855 1.405-1.405-4.855a1.685 1.685 0 10-3.236.936l1.404 4.855-4.855 1.405a1.685 1.685 0 00.937 3.236l4.855-1.404 1.404 4.855a1.685 1.685 0 103.237-.937l-1.405-4.855 4.855-1.404a1.685 1.685 0 00-.936-3.237z" fill="#fff"/><path d="M474.38 506.562a17.079 17.079 0 1111.66-21.152 17.079 17.079 0 01-11.66 21.152z" fill="#e6e6e6"/><path d="M475.638 486.665l-4.855 1.405-3.236.936-4.855 1.405a1.685 1.685 0 00.936 3.236l4.855-1.404 3.237-.937 4.855-1.404a1.685 1.685 0 10-.937-3.237z" fill="#fff"/><path d="M522.378 492.676a17.079 17.079 0 1111.66-21.152 17.079 17.079 0 01-11.66 21.152z" fill="#e6e6e6"/><path d="M526.636 472.82l-6.615-5.442a1.436 1.436 0 10-1.825 2.217l4.278 3.52-3.692 1.069-3.237.936-4.855 1.405a1.685 1.685 0 10.936 3.236l4.855-1.404 3.237-.937 3.84-1.11-1.823 5.519a1.436 1.436 0 002.727.9l2.687-8.134a1.895 1.895 0 00-.513-1.774z" fill="#fff"/></svg>